<mxfile host="app.diagrams.net" agent="Mozilla/5.0 (Windows NT 10.0; Win64; x64) AppleWebKit/537.36 (KHTML, like Gecko) Chrome/120.0.0.0 Safari/537.36" version="26.0.8">
  <diagram name="第 1 页" id="ZML3KXHriG-NJUgA67tz">
    <mxGraphModel dx="1663" dy="1657" grid="1" gridSize="10" guides="1" tooltips="1" connect="1" arrows="1" fold="1" page="1" pageScale="1" pageWidth="827" pageHeight="1169" math="0" shadow="0">
      <root>
        <mxCell id="0" />
        <mxCell id="1" parent="0" />
        <mxCell id="dBy7059EWkq7GSbZFAL_-1" value="&lt;div&gt;&lt;br&gt;&lt;/div&gt;" style="rounded=1;whiteSpace=wrap;html=1;" vertex="1" parent="1">
          <mxGeometry x="280" y="40" width="284" height="180" as="geometry" />
        </mxCell>
        <mxCell id="dBy7059EWkq7GSbZFAL_-2" value="&lt;font color=&quot;#1930ff&quot; style=&quot;font-size: 14px;&quot; face=&quot;Comic Sans MS&quot;&gt;Service(HashMap)&lt;/font&gt;" style="rounded=1;whiteSpace=wrap;html=1;" vertex="1" parent="1">
          <mxGeometry x="355" y="50" width="134" height="30" as="geometry" />
        </mxCell>
        <mxCell id="dBy7059EWkq7GSbZFAL_-3" value="Service" style="rounded=1;whiteSpace=wrap;html=1;" vertex="1" parent="1">
          <mxGeometry x="294" y="130" width="120" height="60" as="geometry" />
        </mxCell>
        <mxCell id="dBy7059EWkq7GSbZFAL_-4" value="ServiceImpl" style="rounded=1;whiteSpace=wrap;html=1;" vertex="1" parent="1">
          <mxGeometry x="430" y="130" width="120" height="60" as="geometry" />
        </mxCell>
        <mxCell id="dBy7059EWkq7GSbZFAL_-5" value="key" style="rounded=1;whiteSpace=wrap;html=1;" vertex="1" parent="1">
          <mxGeometry x="314" y="90" width="80" height="30" as="geometry" />
        </mxCell>
        <mxCell id="dBy7059EWkq7GSbZFAL_-6" value="value" style="rounded=1;whiteSpace=wrap;html=1;" vertex="1" parent="1">
          <mxGeometry x="450" y="90" width="80" height="30" as="geometry" />
        </mxCell>
        <mxCell id="dBy7059EWkq7GSbZFAL_-7" value="" style="rounded=1;whiteSpace=wrap;html=1;" vertex="1" parent="1">
          <mxGeometry x="50" y="240" width="290" height="520" as="geometry" />
        </mxCell>
        <mxCell id="dBy7059EWkq7GSbZFAL_-8" value="" style="rounded=1;whiteSpace=wrap;html=1;" vertex="1" parent="1">
          <mxGeometry x="490" y="240" width="290" height="520" as="geometry" />
        </mxCell>
        <mxCell id="dBy7059EWkq7GSbZFAL_-9" value="&lt;font face=&quot;Comic Sans MS&quot; color=&quot;#1930ff&quot; style=&quot;font-size: 14px;&quot;&gt;Server&lt;/font&gt;" style="rounded=1;whiteSpace=wrap;html=1;" vertex="1" parent="1">
          <mxGeometry x="140" y="250" width="110" height="30" as="geometry" />
        </mxCell>
        <mxCell id="dBy7059EWkq7GSbZFAL_-10" value="&lt;font style=&quot;font-size: 14px;&quot; color=&quot;#1930ff&quot; face=&quot;Comic Sans MS&quot;&gt;Client&lt;/font&gt;" style="rounded=1;whiteSpace=wrap;html=1;" vertex="1" parent="1">
          <mxGeometry x="580" y="250" width="110" height="30" as="geometry" />
        </mxCell>
        <mxCell id="dBy7059EWkq7GSbZFAL_-11" value="&lt;h2&gt;&lt;font color=&quot;#ff1f4b&quot; style=&quot;font-size: 18px;&quot; face=&quot;Comic Sans MS&quot;&gt;MyRPC&lt;br&gt;version2.2&lt;/font&gt;&lt;/h2&gt;" style="ellipse;whiteSpace=wrap;html=1;" vertex="1" parent="1">
          <mxGeometry x="20" y="-80" width="120" height="80" as="geometry" />
        </mxCell>
        <mxCell id="dBy7059EWkq7GSbZFAL_-12" value="" style="edgeStyle=orthogonalEdgeStyle;rounded=0;orthogonalLoop=1;jettySize=auto;html=1;entryX=-0.011;entryY=0.425;entryDx=0;entryDy=0;entryPerimeter=0;" edge="1" parent="1" source="dBy7059EWkq7GSbZFAL_-13" target="dBy7059EWkq7GSbZFAL_-1">
          <mxGeometry relative="1" as="geometry">
            <mxPoint x="60" y="130" as="targetPoint" />
            <Array as="points">
              <mxPoint x="20" y="320" />
              <mxPoint x="20" y="116" />
            </Array>
          </mxGeometry>
        </mxCell>
        <mxCell id="dBy7059EWkq7GSbZFAL_-13" value="服务注册和保存(UserServiceImpl)" style="rounded=1;whiteSpace=wrap;html=1;" vertex="1" parent="1">
          <mxGeometry x="136.5" y="300" width="120" height="40" as="geometry" />
        </mxCell>
        <mxCell id="dBy7059EWkq7GSbZFAL_-14" value="实例化proxy" style="rounded=1;whiteSpace=wrap;html=1;" vertex="1" parent="1">
          <mxGeometry x="575" y="300" width="120" height="40" as="geometry" />
        </mxCell>
        <mxCell id="dBy7059EWkq7GSbZFAL_-15" value="" style="edgeStyle=orthogonalEdgeStyle;rounded=0;orthogonalLoop=1;jettySize=auto;html=1;" edge="1" parent="1" source="dBy7059EWkq7GSbZFAL_-16" target="dBy7059EWkq7GSbZFAL_-19">
          <mxGeometry relative="1" as="geometry" />
        </mxCell>
        <mxCell id="dBy7059EWkq7GSbZFAL_-16" value="反射获取UserService代理" style="rounded=1;whiteSpace=wrap;html=1;" vertex="1" parent="1">
          <mxGeometry x="575" y="462.5" width="120" height="40" as="geometry" />
        </mxCell>
        <mxCell id="dBy7059EWkq7GSbZFAL_-17" value="补充说明：&lt;div&gt;UserService提供一个方法&lt;/div&gt;&lt;div&gt;getUserById&lt;/div&gt;" style="shape=note;whiteSpace=wrap;html=1;backgroundOutline=1;darkOpacity=0.05;" vertex="1" parent="1">
          <mxGeometry x="690" y="55" width="110" height="135" as="geometry" />
        </mxCell>
        <mxCell id="dBy7059EWkq7GSbZFAL_-18" value="" style="edgeStyle=orthogonalEdgeStyle;rounded=0;orthogonalLoop=1;jettySize=auto;html=1;" edge="1" parent="1" source="dBy7059EWkq7GSbZFAL_-19" target="dBy7059EWkq7GSbZFAL_-34">
          <mxGeometry relative="1" as="geometry" />
        </mxCell>
        <mxCell id="dBy7059EWkq7GSbZFAL_-19" value="动态代理调用getUserById" style="rounded=1;whiteSpace=wrap;html=1;" vertex="1" parent="1">
          <mxGeometry x="575" y="520" width="120" height="40" as="geometry" />
        </mxCell>
        <mxCell id="dBy7059EWkq7GSbZFAL_-20" value="1. 发起请求（UserService, getUserById）" style="text;html=1;align=center;verticalAlign=middle;resizable=0;points=[];autosize=1;strokeColor=none;fillColor=none;" vertex="1" parent="1">
          <mxGeometry x="300" y="610" width="250" height="30" as="geometry" />
        </mxCell>
        <mxCell id="dBy7059EWkq7GSbZFAL_-21" value="Netty" style="swimlane;whiteSpace=wrap;html=1;" vertex="1" parent="1">
          <mxGeometry x="99" y="435" width="195" height="245" as="geometry" />
        </mxCell>
        <mxCell id="dBy7059EWkq7GSbZFAL_-22" value="" style="edgeStyle=orthogonalEdgeStyle;rounded=0;orthogonalLoop=1;jettySize=auto;html=1;" edge="1" parent="dBy7059EWkq7GSbZFAL_-21" source="dBy7059EWkq7GSbZFAL_-23" target="dBy7059EWkq7GSbZFAL_-25">
          <mxGeometry relative="1" as="geometry" />
        </mxCell>
        <mxCell id="dBy7059EWkq7GSbZFAL_-23" value="监听端口" style="rounded=1;whiteSpace=wrap;html=1;" vertex="1" parent="dBy7059EWkq7GSbZFAL_-21">
          <mxGeometry x="36.5" y="110" width="129" height="25" as="geometry" />
        </mxCell>
        <mxCell id="dBy7059EWkq7GSbZFAL_-24" value="初始化" style="rounded=1;whiteSpace=wrap;html=1;" vertex="1" parent="dBy7059EWkq7GSbZFAL_-21">
          <mxGeometry x="36.5" y="45" width="129" height="25" as="geometry" />
        </mxCell>
        <mxCell id="dBy7059EWkq7GSbZFAL_-25" value="4. method.invoke(serviceImpl, args)" style="rounded=1;whiteSpace=wrap;html=1;" vertex="1" parent="dBy7059EWkq7GSbZFAL_-21">
          <mxGeometry x="11" y="175" width="180" height="60" as="geometry" />
        </mxCell>
        <mxCell id="dBy7059EWkq7GSbZFAL_-26" value="" style="endArrow=classic;html=1;rounded=0;exitX=0.5;exitY=1;exitDx=0;exitDy=0;entryX=0.5;entryY=0;entryDx=0;entryDy=0;" edge="1" parent="dBy7059EWkq7GSbZFAL_-21" source="dBy7059EWkq7GSbZFAL_-24" target="dBy7059EWkq7GSbZFAL_-23">
          <mxGeometry width="50" height="50" relative="1" as="geometry">
            <mxPoint x="361" y="45" as="sourcePoint" />
            <mxPoint x="411" y="-5" as="targetPoint" />
          </mxGeometry>
        </mxCell>
        <mxCell id="dBy7059EWkq7GSbZFAL_-27" value="" style="endArrow=classic;html=1;rounded=0;exitX=0.5;exitY=1;exitDx=0;exitDy=0;entryX=1;entryY=0.75;entryDx=0;entryDy=0;" edge="1" parent="1" source="dBy7059EWkq7GSbZFAL_-1" target="dBy7059EWkq7GSbZFAL_-21">
          <mxGeometry width="50" height="50" relative="1" as="geometry">
            <mxPoint x="470" y="450" as="sourcePoint" />
            <mxPoint x="520" y="400" as="targetPoint" />
          </mxGeometry>
        </mxCell>
        <mxCell id="dBy7059EWkq7GSbZFAL_-28" value="&lt;font style=&quot;font-size: 12px;&quot;&gt;3.返回UserServiceImpl&lt;/font&gt;" style="edgeLabel;html=1;align=center;verticalAlign=middle;resizable=0;points=[];" vertex="1" connectable="0" parent="dBy7059EWkq7GSbZFAL_-27">
          <mxGeometry x="-0.0105" y="3" relative="1" as="geometry">
            <mxPoint x="52" y="2" as="offset" />
          </mxGeometry>
        </mxCell>
        <mxCell id="dBy7059EWkq7GSbZFAL_-29" value="5. 返回结果" style="text;html=1;align=center;verticalAlign=middle;resizable=0;points=[];autosize=1;strokeColor=none;fillColor=none;" vertex="1" parent="1">
          <mxGeometry x="382" y="650" width="80" height="30" as="geometry" />
        </mxCell>
        <mxCell id="dBy7059EWkq7GSbZFAL_-30" value="&lt;font style=&quot;font-size: 14px; color: rgb(255, 31, 75);&quot; face=&quot;Comic Sans MS&quot;&gt;Optimize:&lt;/font&gt;&lt;div&gt;&lt;font style=&quot;font-size: 14px; color: rgb(255, 31, 75);&quot; face=&quot;Comic Sans MS&quot;&gt;1. Netty自定义序列化器和编解码器&lt;/font&gt;&lt;/div&gt;&lt;div&gt;&lt;font style=&quot;font-size: 14px; color: rgb(255, 31, 75);&quot; face=&quot;Comic Sans MS&quot;&gt;2. 客户端建立本地缓存&lt;/font&gt;&lt;/div&gt;" style="ellipse;shape=cloud;whiteSpace=wrap;html=1;" vertex="1" parent="1">
          <mxGeometry x="-60" y="10" width="280" height="90" as="geometry" />
        </mxCell>
        <mxCell id="dBy7059EWkq7GSbZFAL_-31" value="&lt;h1 style=&quot;margin-top: 0px;&quot;&gt;&lt;font style=&quot;font-size: 12px;&quot;&gt;Netty Initialize&lt;/font&gt;&lt;/h1&gt;&lt;p&gt;&lt;span style=&quot;background-color: transparent; color: light-dark(rgb(0, 0, 0), rgb(255, 255, 255));&quot;&gt;1. 定义消息格式（解决粘包问题）&lt;/span&gt;&lt;/p&gt;&lt;p&gt;&lt;font&gt;2. 计算消息长度&lt;/font&gt;&lt;/p&gt;&lt;p&gt;&lt;font&gt;3. 定义编解码器&lt;/font&gt;&lt;/p&gt;&lt;p&gt;&lt;font&gt;4. 定义handler&lt;/font&gt;&lt;/p&gt;&lt;p&gt;&lt;font&gt;&lt;span style=&quot;white-space: pre;&quot;&gt;&#x9;&lt;/span&gt;4.1 定义通信后接收的逻辑&lt;br&gt;&lt;/font&gt;&lt;/p&gt;&lt;p&gt;&lt;font style=&quot;&quot;&gt;&lt;font&gt;&lt;span style=&quot;white-space: pre;&quot;&gt;&#x9;&lt;/span&gt;4.2 定义异常处理逻辑&lt;/font&gt;&lt;br&gt;&lt;/font&gt;&lt;/p&gt;&lt;p&gt;&lt;font style=&quot;&quot;&gt;&lt;font&gt;5. 创建NIO连接&lt;/font&gt;&lt;/font&gt;&lt;/p&gt;" style="text;html=1;whiteSpace=wrap;overflow=hidden;rounded=0;" vertex="1" parent="1">
          <mxGeometry x="800" y="380" width="180" height="320" as="geometry" />
        </mxCell>
        <mxCell id="dBy7059EWkq7GSbZFAL_-32" value="Netty" style="swimlane;whiteSpace=wrap;html=1;" vertex="1" parent="1">
          <mxGeometry x="535" y="370" width="200" height="310" as="geometry" />
        </mxCell>
        <mxCell id="dBy7059EWkq7GSbZFAL_-33" value="初始化Netty并连接zookeeper" style="rounded=1;whiteSpace=wrap;html=1;" vertex="1" parent="dBy7059EWkq7GSbZFAL_-32">
          <mxGeometry x="42.5" y="35" width="115" height="30" as="geometry" />
        </mxCell>
        <mxCell id="dBy7059EWkq7GSbZFAL_-34" value="从zookeeper获取服务地址" style="rounded=1;whiteSpace=wrap;html=1;" vertex="1" parent="dBy7059EWkq7GSbZFAL_-32">
          <mxGeometry x="40" y="240" width="120" height="60" as="geometry" />
        </mxCell>
        <mxCell id="dBy7059EWkq7GSbZFAL_-35" value="" style="endArrow=classic;html=1;rounded=0;exitX=0.5;exitY=1;exitDx=0;exitDy=0;entryX=0.5;entryY=0;entryDx=0;entryDy=0;" edge="1" parent="1" source="dBy7059EWkq7GSbZFAL_-14" target="dBy7059EWkq7GSbZFAL_-32">
          <mxGeometry width="50" height="50" relative="1" as="geometry">
            <mxPoint x="430" y="570" as="sourcePoint" />
            <mxPoint x="480" y="520" as="targetPoint" />
          </mxGeometry>
        </mxCell>
        <mxCell id="dBy7059EWkq7GSbZFAL_-36" value="&lt;h1 style=&quot;margin-top: 0px;&quot;&gt;&lt;font style=&quot;font-size: 12px;&quot;&gt;Netty Initialize&lt;/font&gt;&lt;/h1&gt;&lt;p&gt;具体设置类似客户端&lt;/p&gt;" style="text;html=1;whiteSpace=wrap;overflow=hidden;rounded=0;align=right;" vertex="1" parent="1">
          <mxGeometry x="-140" y="462.5" width="180" height="95" as="geometry" />
        </mxCell>
        <mxCell id="dBy7059EWkq7GSbZFAL_-37" value="" style="endArrow=classic;html=1;rounded=0;exitX=0.5;exitY=1;exitDx=0;exitDy=0;entryX=0.5;entryY=0;entryDx=0;entryDy=0;" edge="1" parent="1" source="dBy7059EWkq7GSbZFAL_-13" target="dBy7059EWkq7GSbZFAL_-21">
          <mxGeometry width="50" height="50" relative="1" as="geometry">
            <mxPoint x="460" y="480" as="sourcePoint" />
            <mxPoint x="510" y="430" as="targetPoint" />
          </mxGeometry>
        </mxCell>
        <mxCell id="dBy7059EWkq7GSbZFAL_-38" value="" style="edgeStyle=orthogonalEdgeStyle;rounded=0;orthogonalLoop=1;jettySize=auto;html=1;" edge="1" parent="1" source="dBy7059EWkq7GSbZFAL_-33" target="dBy7059EWkq7GSbZFAL_-16">
          <mxGeometry relative="1" as="geometry" />
        </mxCell>
        <mxCell id="dBy7059EWkq7GSbZFAL_-39" value="" style="endArrow=classic;html=1;rounded=0;exitX=0;exitY=0.5;exitDx=0;exitDy=0;entryX=1;entryY=0.5;entryDx=0;entryDy=0;" edge="1" parent="1" source="dBy7059EWkq7GSbZFAL_-34" target="dBy7059EWkq7GSbZFAL_-25">
          <mxGeometry width="50" height="50" relative="1" as="geometry">
            <mxPoint x="460" y="480" as="sourcePoint" />
            <mxPoint x="510" y="430" as="targetPoint" />
          </mxGeometry>
        </mxCell>
        <mxCell id="dBy7059EWkq7GSbZFAL_-40" value="" style="endArrow=classic;html=1;rounded=0;exitX=0.895;exitY=0.022;exitDx=0;exitDy=0;exitPerimeter=0;entryX=0.333;entryY=1.004;entryDx=0;entryDy=0;entryPerimeter=0;" edge="1" parent="1" source="dBy7059EWkq7GSbZFAL_-25" target="dBy7059EWkq7GSbZFAL_-1">
          <mxGeometry width="50" height="50" relative="1" as="geometry">
            <mxPoint x="460" y="360" as="sourcePoint" />
            <mxPoint x="510" y="310" as="targetPoint" />
          </mxGeometry>
        </mxCell>
        <mxCell id="dBy7059EWkq7GSbZFAL_-41" value="" style="endArrow=classic;html=1;rounded=0;exitX=1;exitY=0.75;exitDx=0;exitDy=0;entryX=0;entryY=0.75;entryDx=0;entryDy=0;" edge="1" parent="1" source="dBy7059EWkq7GSbZFAL_-25" target="dBy7059EWkq7GSbZFAL_-34">
          <mxGeometry width="50" height="50" relative="1" as="geometry">
            <mxPoint x="460" y="480" as="sourcePoint" />
            <mxPoint x="510" y="430" as="targetPoint" />
          </mxGeometry>
        </mxCell>
        <mxCell id="dBy7059EWkq7GSbZFAL_-42" value="2. 获取实体类 UserServiceImpl" style="text;html=1;align=center;verticalAlign=middle;whiteSpace=wrap;rounded=0;" vertex="1" parent="1">
          <mxGeometry x="160" y="280" width="290" height="30" as="geometry" />
        </mxCell>
        <mxCell id="dBy7059EWkq7GSbZFAL_-43" value="&lt;div&gt;&lt;br&gt;&lt;/div&gt;" style="rounded=1;whiteSpace=wrap;html=1;" vertex="1" parent="1">
          <mxGeometry x="283" y="810" width="284" height="180" as="geometry" />
        </mxCell>
        <mxCell id="dBy7059EWkq7GSbZFAL_-44" value="Zookeeper" style="rounded=1;whiteSpace=wrap;html=1;" vertex="1" parent="1">
          <mxGeometry x="362" y="830" width="128" height="30" as="geometry" />
        </mxCell>
        <mxCell id="dBy7059EWkq7GSbZFAL_-45" value="Service" style="rounded=1;whiteSpace=wrap;html=1;" vertex="1" parent="1">
          <mxGeometry x="294" y="890" width="120" height="60" as="geometry" />
        </mxCell>
        <mxCell id="dBy7059EWkq7GSbZFAL_-46" value="ServerIP:Port" style="rounded=1;whiteSpace=wrap;html=1;" vertex="1" parent="1">
          <mxGeometry x="440" y="890" width="120" height="60" as="geometry" />
        </mxCell>
        <mxCell id="dBy7059EWkq7GSbZFAL_-47" value="" style="endArrow=classic;html=1;rounded=0;entryX=0.011;entryY=0.579;entryDx=0;entryDy=0;entryPerimeter=0;" edge="1" parent="1" target="dBy7059EWkq7GSbZFAL_-43">
          <mxGeometry width="50" height="50" relative="1" as="geometry">
            <mxPoint x="20" y="320" as="sourcePoint" />
            <mxPoint x="530" y="440" as="targetPoint" />
            <Array as="points">
              <mxPoint x="20" y="914" />
            </Array>
          </mxGeometry>
        </mxCell>
        <mxCell id="dBy7059EWkq7GSbZFAL_-48" value="" style="endArrow=classic;startArrow=classic;html=1;rounded=0;entryX=1;entryY=0.5;entryDx=0;entryDy=0;exitX=0.996;exitY=0.59;exitDx=0;exitDy=0;exitPerimeter=0;" edge="1" parent="1" source="dBy7059EWkq7GSbZFAL_-43" target="dBy7059EWkq7GSbZFAL_-34">
          <mxGeometry width="50" height="50" relative="1" as="geometry">
            <mxPoint x="450" y="800" as="sourcePoint" />
            <mxPoint x="500" y="750" as="targetPoint" />
            <Array as="points">
              <mxPoint x="830" y="916" />
              <mxPoint x="830" y="640" />
            </Array>
          </mxGeometry>
        </mxCell>
      </root>
    </mxGraphModel>
  </diagram>
</mxfile>
